<mxfile host="drawio-plugin" modified="2022-05-27T14:19:02.529Z" agent="5.0 (X11; Linux x86_64) AppleWebKit/537.36 (KHTML, like Gecko) Chrome/97.0.4692.45 Safari/537.36" etag="f92k6HEWtMd4pEpNHN2U" version="15.5.4" type="embed"><diagram id="23iRSUPoRavnBvh4doch" name="Page-1"><mxGraphModel dx="1326" dy="1065" grid="1" gridSize="10" guides="1" tooltips="1" connect="1" arrows="1" fold="1" page="1" pageScale="1" pageWidth="827" pageHeight="1169" math="0" shadow="0"><root><mxCell id="0"/><mxCell id="1" parent="0"/><mxCell id="7" value="gateway" style="sketch=0;outlineConnect=0;fontColor=#232F3E;gradientColor=none;strokeColor=#232F3E;fillColor=#ffffff;dashed=0;verticalLabelPosition=bottom;verticalAlign=top;align=center;html=1;fontSize=12;fontStyle=0;aspect=fixed;shape=mxgraph.aws4.resourceIcon;resIcon=mxgraph.aws4.customer_gateway;" parent="1" vertex="1"><mxGeometry x="150" y="200" width="60" height="60" as="geometry"/></mxCell><mxCell id="31" value="" style="group" parent="1" vertex="1" connectable="0"><mxGeometry x="20" y="430" width="760" height="410" as="geometry"/></mxCell><mxCell id="25" value="" style="rounded=0;whiteSpace=wrap;html=1;" parent="31" vertex="1"><mxGeometry width="760" height="410" as="geometry"/></mxCell><mxCell id="29" value="" style="group" parent="31" vertex="1" connectable="0"><mxGeometry x="96.00068965517244" y="210.00250000000005" width="158.8965517241379" height="144.37931034482756" as="geometry"/></mxCell><mxCell id="3" value="Soil moisture sensor" style="sketch=0;outlineConnect=0;fontColor=#232F3E;gradientColor=none;fillColor=#6CAE3E;strokeColor=none;dashed=0;verticalLabelPosition=bottom;verticalAlign=top;align=center;html=1;fontSize=12;fontStyle=0;aspect=fixed;pointerEvents=1;shape=mxgraph.aws4.sensor;" parent="29" vertex="1"><mxGeometry width="40.96551724137931" height="44.37931034482759" as="geometry"/></mxCell><mxCell id="4" value="Air humidity sensor" style="sketch=0;outlineConnect=0;fontColor=#232F3E;gradientColor=none;fillColor=#6CAE3E;strokeColor=none;dashed=0;verticalLabelPosition=bottom;verticalAlign=top;align=center;html=1;fontSize=12;fontStyle=0;aspect=fixed;pointerEvents=1;shape=mxgraph.aws4.sensor;" parent="29" vertex="1"><mxGeometry x="117.9310344827586" width="40.96551724137931" height="44.37931034482759" as="geometry"/></mxCell><mxCell id="5" value="Temperature sensor" style="sketch=0;outlineConnect=0;fontColor=#232F3E;gradientColor=none;fillColor=#6CAE3E;strokeColor=none;dashed=0;verticalLabelPosition=bottom;verticalAlign=top;align=center;html=1;fontSize=12;fontStyle=0;aspect=fixed;pointerEvents=1;shape=mxgraph.aws4.sensor;" parent="29" vertex="1"><mxGeometry y="100" width="40.96551724137931" height="44.37931034482759" as="geometry"/></mxCell><mxCell id="6" value="Light sensor" style="sketch=0;outlineConnect=0;fontColor=#232F3E;gradientColor=none;fillColor=#6CAE3E;strokeColor=none;dashed=0;verticalLabelPosition=bottom;verticalAlign=top;align=center;html=1;fontSize=12;fontStyle=0;aspect=fixed;pointerEvents=1;shape=mxgraph.aws4.sensor;" parent="29" vertex="1"><mxGeometry x="117.9310344827586" y="100" width="40.96551724137931" height="44.37931034482759" as="geometry"/></mxCell><mxCell id="28" value="" style="shape=image;verticalLabelPosition=bottom;labelBackgroundColor=#ffffff;verticalAlign=top;aspect=fixed;imageAspect=0;image=https://thingsboard.io/images/samples/nodemcu/temperature/nodemcu.png;" parent="31" vertex="1"><mxGeometry x="366" y="30" width="278.57" height="150" as="geometry"/></mxCell><mxCell id="30" value="" style="shape=image;verticalLabelPosition=bottom;labelBackgroundColor=#ffffff;verticalAlign=top;aspect=fixed;imageAspect=0;image=https://icon-library.com/images/2018/10221963_uno-placa-arduino-uno-png-png-download.png;" parent="31" vertex="1"><mxGeometry x="46" y="20" width="238.92" height="170" as="geometry"/></mxCell><mxCell id="37" value="" style="group" parent="1" vertex="1" connectable="0"><mxGeometry x="390" y="140" width="308.28999999999996" height="190" as="geometry"/></mxCell><mxCell id="35" value="" style="shape=image;verticalLabelPosition=bottom;labelBackgroundColor=#ffffff;verticalAlign=top;aspect=fixed;imageAspect=0;image=data:image/png,iVBORw0KGgoAAAANSUhEUgAAASgAAAErCAMAAABaTe6FAAAAAXNSR0IB2cksfwAAAAlwSFlzAAALEwAACxMBAJqcGAAAARdQTFRFAAAAu8PTpa/F7/H1laG62d3mvsXVSF2IOVB/kZ23+Pn65unvcICiMkl5XW+W3eHpwMfWS1+KOE59O1F/gI6s9PX4Y3WaNk18PFKAYXOY4OPrxczZNUx8c4Ok6+3y0dbhVmmR4+btyc/cTmKMZnec1NnjUmWOtb7PNEt77e/zWmyTQFaDfIuqaXqdRVqGuMDRjZq1qrTIiZayoKvCPlSBmKO8eIens7zO9/f5bHyfztPfQliFg5GurbbK6evxhZOwsLnMnKe/8fP2/efX+8yq+r6T+baF+sWe/NS3/u3g/NvD9pVO9Hsj83QW83AR83IU83Ya9IAq951c/eLN83cc+K54//Dq//n4+Kdr/vTt9YY1//by9Yw/PWpgIAAAAF10Uk5TAP//QP/X/////wJ9////uP//////If////+p////Xv//k/////f///9N//////////////////8Q//////9t////MNX//////5v///////////////9mDP9J/y7/GlPwogAAKVhJREFUeJztXWlb20izZbfYQQIkQIDBLMYQthjCFrYkZDV2CEwSkv//O64ltWT1OW1JFtZM3lyfD/NMbGPJpe7qqlNbV1cHHXTQQQcddNBBBx100EEHHXR19/zXd/Bc9Pb1/wtXGchpg0P/wnWyw/DI6Nh45leZmNQNfWo68+tkh/EZ0zJn5zK+yvykblmGvbCY8XWyw1LetCzLnFnO9CorhbqcnOusZv1EssJEwfR+wcxwhldZW/fkZFn22FqG18kOGzn/FxRHNjO7ynLJv4pl6esrmV0nO/RsacEvMLezOpM2X5hWA/rObkbXyQ59hhb6BeZeNleZ3g7LqS6prf1sLpQVpg90I/wDDONlJtc50C0ZWvkwkwtlhM0jWU71H7D1KoPr9OBl6o9E3zvO4ErZYPnExvuvq4/Ttl9n4kyj69Qltd3b9itlg/4xk+/f0vPtNnPG1xVyqsM+ydIcaR9O11Vyqiv0kfY6GZur6uvUJTX7bziYz8XAJCrY4P7be/SdN7uOs3rbv8/bjdc7Te/fsNp5dr/USJGHJJWbb+OlssBLS603XGhn7bOcT3ciLlSX1FkWp2zbMDQY9Zjramrsok1X2pxtvvG8h1L+g7m83nMzUk51SV226VIHzRR5Q1JW35/K5Q0vxMmprqbasyNeGXFXql9LO/8zuby5psd1CHqhHSf3eIEUlKYw0s2F7FiL9FgrsZw0VlltsaYWyPK3F3rKrN3t1T/P9FyZZDnp61frpHPt57vHr+lL9fXlrg2FYfLncXm7OcVdlta6Bug5azvPvXfeeNrWRP31+QLfw5/G5e0r3FOPwz6kmzdHnuneH9Ha1a/dN5ZKCknlBp7/89qGQzYzDd2LikyzPtGfZ+Fcsd47EqIfV5wn+tbrZ/++NgFZOk9O5zfeu3N5Itcmn3PyDdPG0/OByr4YUZwoGZGGLWNzm80nzRgM3p/fwl9mjjzjcmRqamchv65XdTPaH8HlLZ8obs0KP8RrFJRhpI8BnJI2FApKYGhQtby3b1JfsF0YH1MoUNkjPV7ARaCXUkd1T/C7zBMwzK5VBtVIu5zMtFCxdHoBDho+z+20IYBXuFy0nSX8zOsd9m/smf+Wy1OxdFqJWLN9MnxS6vNFMgDMa/7USwWzUJz9L5n0NYUxbGyxiTdEm8/cTnXBPrQ19Fn2iIZnee9pZ/9paHRoUOHFa+f8wX6k2QwjDQW5jHtYRQUOsUFa36D/dQi5jyVlaAq7hXZDKhNhEBeUOcgfulacLv+5nJSSkgwbgekX8JgNq3XXYi4HC0ofY8Uzz4eedtad6re1Fwr2N2QqB1g6g4+Zqy0TkGhrGmV+IhfkCNT33Z8gp/qaYgvPVqjqQ9g2rVud43jsm0f8oaki3oxhbaT6Xe3HHisFkx3RRYzrmjMtOhbnIAPjjEyoriuFd/6HuHp1y/uICAJtkkmnHpSn3tqTnqMFxZGK8UkSlK44hP8rLHLsyHxBy+UGnR1zpiUt1QcaSpvkfGO2DMyRPyllo58ZX8WC30Bbyppo4RoXaEOZffQZ3nh6KdtM21YxTz69liMn5RhNBHOhhUu8hP2tFcjPZapKyyl55/1/gcsb6lOa1K/JSDBHaGPNw2eMcvJcil708kzmSc9RVxqW0jB4qWuZh5F7p0bV+Q989OlX9CFUIfZU4gtj5EUvke6ZL+PDUufPXGuGZmSUVOpjeMSs+wMq1XKzSofaOu0NZN2MncQkAm5bnTJjjokw12dVAVDX7jP0qSy5vPEZZ3HrSkt3idJLbNa227A5ivwRNU5htWgFov5ek4I6U+3sPc8+NuyR7EpCvJINh8FUWUA9RGbzelnBj+QTBr0PQMImMX+L5LvoCqqq6zogru2ZrEpC5gOWzgs4Aph0stnFQCZXT+bHoG2g5ciGuo7liB28thor0yyxZd8OvAqxdPqk4hrE+BplYovQlkpoIezDarHJ3CbTQEmiTkj6QS9kkZfXI0Wd9JKiDO+VhU4GkU5onmtnidQ5nBTGFj0n4j5NhYu3BEH3LHgquWSjfo1VhS7E419he/fAD7IV1BthCVQ5r8NldPL0WT7VljkW2+68vOlz4lKKR+z8r+HJZ56g1XkBJIKeT+CLHeIDINIPF5SKFzxWhZGtpOduImwu2MyN64pLDMYvKaBzDSs+3WQI9itHFBZRQynOEVb3rqT0y/aFkZfR2vMuscWqkM5omzYJxhnsg9jroxHF6uclMgsKS1ZZEOIYVEftystTl2w4u4Y9c7T6FAffAiyP+L0H+8rYwYOkNw+XLbLmG2aO2H9UL9qTl7dSaFpKwet7Gj0ZZoVfyV8XH7g6hp3HZyk6ghp7TwqqqnGPY+0II6ty6fzfqCCd5sFEMOj8R+Mxdu/RzrvCTxB/w/fF6Yzhz68/vyTkqhxxBVWaIdrn7M5h1Wbc3oMzT5vEHb8CD0dbp7003KQSy7+HyVY4RBVUqSHhR7HApBPdNRpc3UAhxJ17sJt5w5/jguLzOC6BX9+6akkugOM9DkXJP1KjBPshIkTwFjbh6SpYhjAwqEDu4XIu1hHE3cvQrGeYnr1TsaUIOrv/u2h0vsBPXMqnmD4TeRdX4PQQBYyOoElKj+LUKkkZqdu7DCssWQK7INOz6M6hIpuHW6TjXgJwWDYFqU7QESTFiaJ05YKvpG7vMjerShylRC4SQ9drJHyRO5qG896O4vpv0OdB1rB/S74nNkhuyIQyD681DpXaqRpZrOVVFdQblA3NmU69cF/6GDoJQMOpQuMBgOszcniiYaxeI7tsn6iq1aEuVUlIMUUbmXlFLp1eWOFYrGKloyVt4LE2AAf+esSThIQh/QQ/MIOPBTcQBXC8IFZ7SkJU32KWnG8happDKWuQuUJ6bFiWdmTYCpYwHZF0MSKJSUOJigDlWmixJKSHcsOdUiWPY95GB5RzJU7iHvILUFLNj+Zp2Y1jhwf8YV7gmxQR9BflmsL9U0dOmuFQoelMP2pBHBkvKVAKvGJgc0ZkdK7JFhBHX4CFN2lrovMS8tOV51U5cRhZXbLRODuvUXsSpwFby7IxHrICJ1mp6cEMP1NH2mZ5J9YRxAUVeq4XJyrDQRW9UWDziM1MIxxZ3SzhkiLTeirGpATHOII5h8SwIrq7r8Bom0RzlCKCuXCUqnebKUlNO0jC5Q3jE7Co7mYXw9tknk+AU7GDIbQRUFJXzW5Htl55E1/KgmQj6hJJelnZD+3Rr7WM0e14SS2XKLfPMnbk30HunInuF5pSNkZMITelKdVyIftx2jqEDIirQt+TIoIFtMMUyV25BH5f7yXzKuQ8DeAHiEqbivE7lkCzkD8oABuHVNSabJYbZ+gNoW1A3OcV/lrDXk1mTHVTeYuBscRjMPIM8mOugHMqwUqAYIzCt/YAupzIrSs0RPAL4FCktJBlzIFrIX1jnA5NG3OdMLWtiAfFuGwGsraWSSaNVoLAnqwIiGIBDVTEbB7kaMiUmaJk5SSBRoFFLl25kj+BXgEda8ew8+2YX2g3Sc+XCQzmldF/wa+BFUeHAZ6JyrKL5pjG9Byia0EZM1OyB4LARw0UA1la4kZku1wrgL01LC8YjTxm+CH6LLyPO1NBjkZieiT6UOUljebsBJxGq/D+qbx5m9jmw/IO1vFbINmRPOZNOPOKcJwBK23pLfeOWZxBQw4ICNidlA0AxjnxkuAINWE5YWfQ4Qm563SkgT1HhyIsKFuVKRSDfnwWsKSuMDSCi16WNPmq07KWa3LsQZYQ2eVQzEDmGigAdARPpXdTlltCDg9yRpiPZKIahRRd0ubykpQdiwCoCvEisuXL2UBgGaOCAA2mXalF8ebtu9vb2/cfPqrfxnMJskuRykYtCJmK9L78sA1Dmf12MCp9CM21XnAZJ2FZbgLvtSWvmOWctBbUJYSfbj9/qdxVq3d3ta/3794oPgFrBhUpmIJ0lRV4H5UYUDG2kgaSWTs61MbBbkf7fgV0PXDS+7AeFZzdt/uHaqX24KFWqX59VCwrmRLDKEI/HEhI58Lj0sfAZgU6WNkEaEi2xrR10LUQziGPEXQ9vi+7/4qk938eHwIpCVlVv77/jh8DqxI2D5iUrK3H4EfCsbcG9oXKLYYIDFkH6OBg7jmyPbKelOv/FDnvbz5XZTE5qNR+/MQPymatPiuvCYhSF9GSkovTyKiG+K4yErMoW2tkbA1Khx7F5nFBglUsi5lv4NNThcTkLqrPuP3k2DcSmRvR6xpzK0wguzdlo1vJH4zL3ACZ99uyoPBZgLmp5WUVJT9J8n6+qeVUx939L/isfDLBuddflgWB2hz2BR7N8LjZ7++iJFdyvUfAxACjGHW9fIe98jJAJ+2fz83k9PBQfQQ9Jd8oLE5kSkhbg6DwV8pWsTL5Z0K25XB3D8lGrVYAfgQcHLDb5bAF8Q4/qk3lVFdU76PuRM9PN3+TtfUSBBho38hHPzGPdbyKjqbf5OFRwZ8DGWTL7KfMtmOQ9tMX1uMhQf3+R/64pGcwnUY+UygWM3cWrYkPwEZSmOby8W5YqObk80DHzS8HxTCdVEpPRhfs+33zjeduvlv5UjIHoMtpaXI6sqHDMwGDlQJusrI3ygr+VQ6MkYcyLOt6k0i5SF0v6XLkXz5ErSdnST3JS0qOmgFJgVYM8Po34PYiFQQhXlMRVu+TfymaaqCsiTtAu17W9RLHimf2Y5SGciX1Vvq8nOsEOQSorTF0MQPHGih79GEUDsQguHqwueFQHEXjHg5FOYIjp1yPXkl/+et39M6r770f8rUkjQvHHmrrmGMN4wvIcSqyqPdkQSGNuiIbKETCyC6KJuv6C2mzgFb59BCz9R5qsPckjQcuBGhr4gdklpSSXiHf3Fbk5crRTbKTJuTjfxSWNBzLQH8uh6WMiv593IJ6qH35Jv2FpLDh/AUnhM7/hejzfxcEpQgvnIOg4BtQUODqgbcJgpLsZSRwYlVUXUl9kP5Cih/qJckHALbXxGLDGEFNgKAU5bfysaVNwppEQYE9imaWLKgl+RnIxkmktenhTtbmu7LFKakZPP/RUDqKFtR8fPoB2KTIyw2AoOAbetejzKxTQ/pq+eaSCEo2zici/CHwYVoV1Eq8oFpcUWCfTJeiBLUmfTWovwRbryqvqO4IHwYFhfZejI+SYEWhMsdviF5RwJjB1psL6yhkYG7jBVX7JP2FvPVK0nuQKEI8y1RrglLoqINoQUHCMOooCNtDREwKGaLR3/qpJ3lbMaceGsbb0eYB2qsK0ly2o8g8iDM4ZUNOy0tvLk6GBQV21LfYBVX5LXNSsh0lk2v95ZbsKIzcoXmgsKNky5zi9pDfSakuYJkXJA0razDwzn42Je0CFQWWuaSQQQudxhBOq9GW+Ua8ZR7jwiABinsfThM42aT1ho0UWvb1JJsNEhAgvQDj+mjvYf0CujAKp/gl8CTwEchMoLTEg0geSFKhyGXF+TDIHsi5GMUr6c2raCUDpHgce6CKgMr8BOWYQ/yT+Cj5Cvjn1zLXJluc3++jl1QF+KjdKBYQeTH4pXAoEqcu96zj1KcuqmjDVFE0lDDRAzMX5CU/IP8xHLotMpyXktQhowVUAJYTYjwKzawDiAwoGE4IcOL5j2R0Hv4czAdwRmWujfZtlJaq1WQNBfVb8MSOMYwLpxoeiugzg5wVheUUhYkhnDDHfFmmYcDilMVMtsfP5lGYWuURbkSyy/GnwtYiah8NSqKr5LAat2KLj+udAwMKmx/jehCRl81ZioW9aWoiVO4xViw/MVAREBMnVYrpLKBg0MFAAtQBRooxmAvFJlTzuApqUOZSZCWl5TEZ+Ntv5e6rVUlO8spHFYVULhrmEHLX4GyHlrjKSDGkcFLuAYSzaFFA5pIpE1ZQBK5Ri6SPnyuK3IOHR4wTgx2CzxMSpKh6ARwINKuh57Y6iROSrDHXFbU1MmIYrIZryM6ootn+r9svVcxmeXqLn+rqh58inzlQqEvHOwRhyNXD2gVlejcerOAVL0PqEa5KiZxzdpcsCqjpUVUNfvshmQm1p1tFfhRGe+TzewlSF3GLg3VA9iYSnMrykwPQ1phaBNnVWCkD2hy1PTxrbVKVHilxeFVeTpRajHlWoKupSgViNLS1UNcrM+4gAko5nDHbG7N+MWMXDgNVG3aZmgISygVMFqHko5h7wLRhsg6gUl1T5nCitkZDSl5x3PgbKk3R34RVbxhXfAvvQkYCklAuLiEHE/Z/P2Tkaxi/vIxZMbAYuE2IA8wzR+s+JvcQ86PJrYZjUdvhKOx7SVCc7IrzkvFhwc6h9CIopCP1AnmP9PceLiARFO0DOPZIEUI2OxVgYHMCPU8eZzgLofaVVPkulKnrq3B2Ys4/nswwIIEOvTlIXVYX7A2NRedHL0J9BCmpc9x78DNwgIo5i57Up7CggFypPylooENqFHKCLRO1A9T6UpUKlF83G2Asn7xcqw+NlKlMDYtd0KqkPqf2C/D5wqxw5QlszRWcpkkcCapidCnRLo/N129SnCrX6xk6VsLCfVDeHFbK0g+hsVomNNP4GDKkar/lP6ZubTRyjAo88PpYr0duGDTHolRT/3cAi4qCAMqJlBT6D8SaDdEcOn1S0uj/fG0IqnIv/S23d6E2HtjOEes/sEyN2CZIdVXSdg6AaCFtDrY5f88Ebi1UptRk1dLP9kMOejjOcBeOKCxyewhzDCxe7GvEtVWQqkLkI9rtzfrcIVNCbQ2gXI4GDOC5x+XPPdRKStNPGmZEOFWqGuKhNkrUMYGti/hm0Ecx1AKQVc2bUMs7g9t6YtExLjlqjsveNzabcb5mazA4X0MEXiNzs/9Io2J+Q8N9tYn9QamzDLad0zFoB+1om09wBEFQycwAHM+097APF/ceXBzjTlmGnR8UpkYozFB95710OpVT9AQu0smNzVm4mw+EonhrYgFp09FooK1p6dGxRscnVv1ytdmaYmS2pdk72+7zD3nFbgbL8auTss3NkCz7BNUH2R7kgpEc8N7g5xnqskYHwAaTyQlMjGLvoSllaOR/r5BCdz9YdJ9vKMpQdZLHJkxlK0lzjEh/qD9VdBDFnUdWEnb7UfHAHo5jfHMk5xTnJzabUUy1G1A2XPZCpmH6wCEPrhTLry6nPDmr87DpFc1+sH8U3fxhjAMUApSSxbWiULS/HSCbki/XrejAJoyuBn3gkQc0rMz9BdxuuBdndfGCwp2HBWzsKV41FxQ2kCKnEOqGNcxxwPCfIwBOCJlQ9HHzYstvG4L66pAHOGzM/QGzrDvoczzOZwkbPuKSg1r+puamAzi12O9FW4UHg9CS0lmfKCcuuwm4DfrAIw9w8orTVuKEC3lOccqdYkHBV7Eriy1u6NQMgdrjY7oYTgbl8QXYc88xplgpzo1QgzE3NN2gD2pPTpyKpglq1h63vRmmieDcpAOb4Ok07RNMPG7WGgb0NmDblO4c9f30CN60oRquczyIrf3c4/xNw9X77ZTpkbmxQ/2SVWPRLZ1sRRwlQWcedTRXXKkBqDTl/ivYnBjbUy+O8JGmKYfaDuRlO9J1KD4GXnHls/MhCKGZJ6puUzh8wnIObNBRaLdz+sVA3AckkJWP1BdeEFSeqjViXQaqXIeu4QPJM3GPx3+eAkE55IHk5xr2To9KbcxbCnPD0ORmxNjOkWMbQDs2bUcmENcGhmhKybNcyysna5Rpmpr4iTN64/51Z23+DLxiNx0xFF82dOtIfQzdXKqMUsNeCJnLQzgViHr3Uj/zmJZNcKwZ1FmQAh2h6aDzKvfE0nNNRwxNX40FprfLy34PvGKXPLjwNbBhGiPNx0UcqtZU0PTVwQbeE0Wqd3GnxLSUQ5OSyC9S543TYVdlSCI3B7i5mjFM9x69DJ3Pvmnukgdznrmi2VsLkVM19pWzBcySvwRpdiyTvDhzgcxRxGqczckzMwWPqWrlW7+lUoTd5uB4fiqnm5rhxeAD+sAlD9aM+iaxtfXBuI6BTZ5RQTwjNPC5of0Ftn2NbQIGnAz2olHY3uLgOzSUckrSjHv49ULOGHWLSgL6wK0Tmi/a1vrUQIKGgaqmzUEzYhplznY7WJsJJqbS3qOEjlfIEDh12kOKVr6uRk04qnF54nDBEWlAH7iVZ/MjPSsJv6DJObLlqA7kExURYGpNHd9FFVxDHgzCM2dfdG1uqyZGGPp5q8M/fa+49qDIPIjE+CpTgs6Je81t4ZkXwD6FzcnNBrDFPfVvZZdee6mcGKFpLXSPFPCD6srMg2gsUoxH3MQUvK6YGHiO8aMEbVTRKWKSkpqWG0r1pJVTTKD36QOPPGgNvVMKzrh+GtCgYOrJhPQoO4IqHKF0Sa8pWSKS01aks9QEPn1Qe2rSuy0KQ3GjdbwfxPMYKCKYaG4NEiX8AEhLKaAXmlLzUfgmBFV5osZRSRAzrMn7PaShIGExzs/zQdE5HiUTOcXLhZlPN8rrjaiL8ciD1vH6LO7WFE2+NmIdQTVw2iKnfB7T6G2APZtyOJxPH3jkQQoMNB8oJ24t9tdQX5pmGMf5VNwcaCJ6PpWtYCGTwacPqvfxn1VDxZ6GoPP0tgn8yEzSAZw0r56Zt4hRg3Xz6SjBUFY1/KA61jK2gH7iOyUpsJ6mFsSJR5BNwDAoxQw9nC4qyekg3VwqBz59UMUKmBagHqPqweQE93kaHZ94O5A7x9PUu66bPTbNSmDVNofwirFGryUsKkZ+iIfIQ2cpF4kdwebAXvNagVzbGyWXGcHSJYQQFLSEaBHTSi7PUjbWHMBhjoohuU3B7hyzDisYm3URwdIlg6APlNn4LQCHh4u7yxMnPYSx7agAMeNlvL9N0X73TiJZuiQQQXVoW9M6VAPYDIOfItpQlCYYDRwuzjWldZePTxe71NJVVPDog9bJA8Ir5vIUi4X2jmqMdxQw20jVBXkFsy3smUSmfyQ8+iAFeUCgwL1e4mAQ/U4eih0NWlL6Cz7zDyGVbyQhyRYFjz5QZOO3jiWoSSuzwU1UVfN0xGagqfE0sLZ+uIQrcA0z8YyXKHhBdc7GTwN5loyKBqcBLK0uKGekPS6pdWa/xxs8jmYMJjX8I+HRB5SNnw7hEbSmYsYDeWKtaigHRDqpzs1d/0qalYKlU8HLya/8jv9kEvQGFLW+zuc2ZVUZPOcxHgoeU9X6xlu7zxxmHYKXk19LSx4g/DHZhir/gZIWFP3oEwDNc0sf4+kfx27yij6ZiqVTwcvJT08eEA4dg8rQFH7VKfqrTerz4qAoyFCoQyc3ycw/18xswKMPnuMTI17XrRh7iknwacrkShJ7UYGcFI1dSicfepRzKtPDow+wj/Kz0J0bfaHgfcit10tpzZtzdFJUm6+reyQtS6eE6xX72fjtwcoLxZY6peRkKidLjGVMcreKzaY9tg+uV/w88iAJmP1QpFkmBpkIhvVMciAeblC9+lyfOBZ04hln6cIhLqZX8es0hTnSXjj0QU1Vyt9WdBPpz0GHVsAb2T5ph6MSAYc+aIdPHIl+SnlLr8k9DBJXoT9L8vFwvOI0AfVWcENjjw2rlWnlCixSUNiwUh8OieAE1dtCHkTggGjsYiqbPAzezNpksom5KeHQBykD6klxZeBv0jko0DL2ePOV2mo4Ad48I6CeDPMUajPKbTjMNzncYo+kDnDGw6EPUgfUk6AfpyXHlXMkBfmO9TV1kN42i4MTVK+0zycmXHDehKquKQ1e0jdrlM/ePjg5+c8IqMficJR+jYIjToUhTDzUrOvsVtSvulfcTvIAwWFkFSmSDssyS69vYXVaW+EIqp3kAWL6QE5WNBfawmG7mA8b6PrkM22zGNxXH+7aSh4QDsPBUT3//BhbAyHuxlxvH0unxI8qTu1oO/YbeXnaWVvV7VCQAWuPZWpudrn0wbMD6nEIWge1OPg+HhfClbFXn2/CxuC22oaAehz8ZlTpwglRcDtgGPqCguJsM95XMicP6lgrOUe5SR05no+BHU3TLtPn0iXG20rW5IGL8VWz7oxlwa71aFpfduZTAx9qODsgG1wsjOaeQWpGYDBxEuiz8KnWpoB6HG7OFeNx/ofwpm0B9b8cH79WsyQP/h7883SXIXnwF+HX77sMyYO/CN8/32XpE/9F+JyxT/zX4D77gPrfgR93mQfU/w7c3mXuE/8deFfL3if+K/Be0Ru/AwXeZhxQ/2vwIduA+t+Db09ZBtT/Irzp+MTJ8LHj6iXDx46rlwz/dDyYZPjV8WCS4XvH3kyI9KGF+b7tvWeXNf/96J0qF4vFs0E/qHax2+1gtyG6TfFKNmGq/xmcjzr5PFrQSmbA1hwUG12OVsQr1GXt/xX8JitBLwwxgD40dGVFvNJyifVfhaA0vygy4TuCUiOYdOgXKHYEpUbQJ8UfK9ERlBqnHR2VEHtFR1JGMEu2I6gmuDnSi/ZoedBP4uoIqinmB89fNszLjqAS4t8Q1NDy0sBAPxRFXvRP7E7MRWQnXvTP7w6cDjf/xPBKd/fpctP3f356d3v7+O7Dt/YkkonBgqHeV0tRgtocr9/dylxMhev0YZ+LayeNf61vdsvSjPLOwkCQjDjcs3pWNjRja6xPncHef32SK9f/yjobu5xQyeJm/8WOoWlWuTSoclx/vb1/eqhUq3eV2sPvW4yBDvV493cYLoHbl18bGHT/6X77Uv3/j7y8e63kvLjWX//vtngl77wiOXzLPQuF+t1r1lZ+eyMqo3fTKtp1jO5sdi3vbRVFRxNTP/HSQY+vc2KMhKEXc4p+f2vnW7YoMjF0Wxu7IlFN5E1TfINtbWOW6ff3vyvVYM5QpfpwL0dBp0ujzv0VzVA5wNCY95oufvKU+0971Emh7Kn/v591rzkvXm3gK6EM8+XDnC3m+BmarRdeNi+32vQ642uTxyuFcLdre925i/ETM1QVoekHWD5yfSaX4ujmDHjo++XwjBdzUi64/XhfCY0Hd9sBfn0Mb0AxIkbqhS2mwAZt6YRpXnSeI00EfbXbfEDFbkGedqjZ+aaVjr6gCj3QG84sLHct56F196jcq/LiyKSaPnNLyo3dgJEkujR0/sNT9QFRq96HkoPbL6iif39DgxaX8Gl7TTKghaCsMs1YsY+Gqf2B3LnrYrZoMbRwedcw1c+HBzV9+FIhOTmL6nMjZJzhipoqqvrFF4/UZ86mNJSirnMb/yx7zcnqrzVeDPeQ3ww12zVCdc3h6V6HdvDF4kHoheAnf/qqlNPDw93nIGasFNRMO1bUXmgVhKuyi+fK8rSwoDRzpzBZDjSV2/vTMK1cYTKYNhVuVxkMvK7rea1cNoP9bhh+wZo/nFuzCus77vt6ISg++tiYTlyr3N3dVSuBUm9UOLa6onpGTTNQ3aZpOsq88YrhvOIp85dBE1i9qJfL9f8EslVMcZMEVVf6/ZuLp+fh3rCadbSyfHMxERTkjgYn30YwVMl60TN/urJ7sO7LWPenew37GrC797j/umCH5dQYcVKrfr1/9/797ecvwSs1vyCtVUHNdXd3D3pPTF912N/h4fp/D8UrY84rrpXT75ciavrY4cDpykBfSfdfUTZyawjKfCHMkpcNbaWVxSF144/PC7rubvrlofaY39rtIqgc9Oex94t/eg9xbmQ0JKdP/qT5ypdboZO+3df81/zC/lYF5YANzlMyOBfEdjAnr8ROm973G3jaJ1GCCvWICkajheZM94vP6f61fF7RPAnZHt2isl0TQ8LGhaCEep8Oh0r8KUyVp5CR+e7Bl9Tb9IJK4ML449/1fKhZ2Joo+DdoeHZIUIbWOIzmG4us8UFRia3PipsVnQehCcxrf0l5a2jRawxqnPXQoRsMD3iSLMz3NX+mwPcsBSUacWo5qVzT72Cg6jbpCyo8pPlm3TdWQ1XE4vzS8t4/18reR3BOgViN+oz4p/dXhj6DBcliZE6t5saH39z+eHzrGpqiDXVNpN9lI6hNsXZwmp7/I2mKeENQ0mxi0Q5Qy4V2lRhEp61LX6ljAGjFZxu9vecv8boltyqLSuw8r0/i+y/VOj47a8tfaaJhdzaCElpMWwfvzp8iZHM3SCEoQw+/te0Zkt7oO4FTSxLUNtycj2nRGVYXGv4osEl17UVo9YkhC96C+uBppqo7PUcsqbvHDAXV460E7q0tNoSij6IvKGmu04HXdcIMb9V+j5n2BeWpLMU4KFGuPSrMuuFSwyo1re2gMtlrUOo1QvrujyF0azzEdCbRfiQwLtsqKNHAjcctilbJJk+I8QUlTcvZ8wQl9XgZlwR17D1oxWyey6K8lcfHGn6OYRf8/fcmZAa8+eKbT07B3idpQkw2ghK63KaetWLeHg/uCpxiaeCuL6iwCywL6sbbYQqtN+jJpdE67uJIbxhmutUDguoKjXOuOFmc32qNdxqCCneF8QXlD6NqXVDijLGplcOuEBRbUgHNElZrQlDF8E6FFeXdKw8T92dDhw+H/UIx1K3aM2G9JsqeON4ExtPnLlxRYoy7SlBBeCqDFcVUaEpBiYNRMTJtQaHlh/smAz5GNAH7qNJRta+fArvBbxvsf1/oN/lPyd/3rQuqr5mOEoOyTe64rRTUoEJQc7KgxMFI03l6vWanBswQnzvM+Y6g14jdHy3kWuCffLql8vtjMCHmUbpQMUT4iSlmwejT9Kce6WxhViuGDqVdUWI0HU2fFcPntBx23pibEkSLnnedK2EFeDvsw+/q3V3NXUe+C+i3HzkQuyS0lcX4cz0/nVZQp+IuccrsuDDNde5Dk1ZQwlpAt8gfNa3Qhl374k881fLed/XcFNefH969cxt1P3z1d6FwlEW7r7CpsiY2sbD+UwiqN6+2zMVTIUP0GYJq4uv5cytCKqoR0PGoMrErfQu89sX3ib+5vLDQ60Fn825hRIfOV98K8s3FFL6e6But7Ui+nt8qUtX7Lq2gguGqEnvQI7is0Ezal+alzxjOC8bUW4Q+HVX56nNPH38HzF3twU8RHhdNwxtTldbE/gjI7xSC8hM7JPZgXszNUw7TSS2oaX9wgV3yD6TloOdXMVjSrw1NXxXX3ZPsxDc+H1Wr3X9y/eGftw2KM6js90lSS+vzVNKST4YEPyeFoPwzon4I+wG2zWu/u5RyVEVqQdW95AbDebi7MrG/PekfbOaYH3bddag882x7/qJ3bk98g7+JbgMmuPrw+8fjj/unh2BBfWlwVH76k6GPXXfPX035PydQUakEtRZiOAc3VuavLvN+4E3LqRrapxdUaIiVOxNdDzhzLYjViB6hhm3k1rfEjdi+e/DrcyNWVaneVRtx0FotVK8+HAy7cS6jB3FEMwjBpRFU136DM7c1w2jcvWEq57o9Q1DHI6poldOE0r/SXGMwZxDJCTGEb56aRGFqn8MFaT2q0dZ1eQeHRCpBiawqgtFkzt4zBNV18UI1zk4zAgU1vc3D+MIK4JMi/ukKKswOdw3hDEoHeqHhjqcT1PGUcgy8eamOgKa1zF30XnKk2N65anxgensUbqYodVN987ux3wIpVSquhd7A8Aw9fHMy5DulE1RX17XBkeKmcyefs6Lq6JmUoveGrp9ImnC6byucnKAVV2Ve5p/Hh4okqlr16X3dianehxMQFo906elrRWlOXVpBdXWX4O7tUtNeiovaqIuzsKAuvddGw73ex03vtUn575cHc6ZTFmAYmqYXy6u7uHBPX5SLuve+WcwNUhbSp89fqhUvolCrL6avjx+7ft5Xa5VH6VOvSrrtfov7NZN9kpW7LW7Xt6u6xb8bm3xevIL+Qu/LdfG9zt1rpf3mre+Gdjd269iQCO21V85ru6/Ci+NGfJDY5OXdqXxhZ+tsp7Dap6w1WTocK+S2znLrIz3K1ovfbn9/fXAixV+e7t+6W86RVE2u3ruZuByb3Nna2snlF17D1yyJ2/UX6/CG9+/G3SyKVxQu3MRBqX53WzuTswfzmXfyG7oYX1obj0jD6p1bW5uLaFT48dPbt28/fAuyWH7eVypfqK/GxfjaUv9c+/vtbTrf255G1P86fv2oygq9gyb4+aNSve/0QUiAX3VJZdi1+y/Cr8dqrVOOnQTfH6tfO42SEuHxrqPQk+H2rqPQk+H2rqPQk+G20lHoyXDbUegJ8a6j0BPiXUehJ8S7jkJPiLcdhZ4QbzsdOhPi278xjeGvQEdQHXTQQQcddNBBBx100EEHHbQL/wewWjJFTRJiRgAAAABJRU5ErkJggg==;" parent="37" vertex="1"><mxGeometry x="140" y="20" width="168.29" height="170" as="geometry"/></mxCell><mxCell id="36" value="" style="shape=image;verticalLabelPosition=bottom;labelBackgroundColor=#ffffff;verticalAlign=top;aspect=fixed;imageAspect=0;image=data:image/png,iVBORw0KGgoAAAANSUhEUgAAAT4AAAFoCAMAAAD5MWfoAAAAAXNSR0IB2cksfwAAAAlwSFlzAAALEwAACxMBAJqcGAAAAYlQTFRFAAAA7u7u2tra1dXV39/f9PX45OTk6urqsLCwlZWVhISEjo6OqKioyMjIODg4ExMTGRkZSEhInZ2dUVFRHx8fLS0tcXFxz8/P8fHxra2tfX19JycnBgcEAAAANTU1dnZ2bGxswMDAQUFBAgMBZmZmo6Ojurq6DQ0N9/f5WlpaMzMztLS0PDw8TU1NYGBgVVVVCQ4D+Pn6IC8LLkIPGiUIJjcNSWkZMUcQ9PT0FBwGWYAeb6AlXoggRGMXDhUEcqQmU3gcKjwOY48hea4pc6cnQF0Ve7EqZ5Yjdakodqsoa5skTnAaOFETd60pNEwRPFcUMTExfLIqBQACEAEFFQEHCQADAwAAGgIJNAQSVgcecgoogwstmg02og44pw86jQwxdwoqYggiQAUWJAMMDQEEUgccfAsrtxBAvhFDwRFEwBFDvxFDuhBBrA88kg0zZwkkOgUUvRFCvBFCKQMOlQ00RwYZLgQQHwIKTQcbXQggiAwvsRA+wxFExBJFwhFEng43bAkltBA/xhJF7bdpUgAAAIN0Uk5TAE3c/7ghk2n/////////////////////N////////////////////xD//////////wL///////8k//////////////////////////////////////////////////////////////////////////////////////////////////+iKJHGAAApWUlEQVR4nO1di1vTSLRHYUFBBFlcFNpVrIquj0UoKLS8wRIguhdKgZYWyqPNo6WkUF7dW+T+5Tdpk8lMMnmCTXHz+z4/Udokc3LmvM+ZujoXLly4cOHChQsXLly4cOHChQsXLly4cOHChQsXLly4cOHChQsXLly4cOHChQsXLly4cOHChQsXLly4cOHChQsXLlz8Crhzt77ht598j8b6+qaffItqouHe/eaWB638khqaH7a1tT9qqf+JN+v4vbOt7fEfXXV1T7qe8jd++hNvVgU0dPd4vDza/nx2/7G3gs7nvY1dD5q7W3rv3MxNfmu9393d0drY2t0j3qK9uflFu4//wdf5sutmblJdPKm/1/Hq9YOHXhza/mwXiNr36OmbG7hV79s2gVBtf7Vjb9bZ0fuq42nXbdrRb1496uzz+fr6sAuS0ff2ddfrp09fN9i5SWPvvafvWlv/aDO6SZvH52l/33JDvP7z8eYPj8GS4LXx6LG+xRq6H/fx32wzIp6MD40/Y603iKbXLR/f/v324yOf6TX5xI92dli71bvH+tfF4c/ywzXfq00y3n3WY0i2fs1PeJo/WbjXK22m8/QbPUTny9afRgS7+NTRqfW4A4N+aUlDwwNa+9rTbP5m2tTrHxz2V37y9Q989mt8qq35y8+jhC00a4u7kdFAcGxovLymsYnJgQoH+pVr62tube01lIH1va2t91XU849UXsHUaGCwfJ+RweHpwLA2I76sFfr91vXgfsv9bpWS9Q1MjYh7dXxyZmZ2es7P/6s/+DUwVl7rQPCzguKevr6+9me6kulJSyf/IeWb6p8Lli/pn5z9OszfxDMwHJqfIeYqn/OM+6dUbOh7zj/0q9Yn1aKSFt793anBd/7gQnBxaWCcX894kCRIckHYV2NfCTI4JKw5OD9c5sh+dG0verVvVv83Ijs9FUngn5xZFP71LUQS84P8e5sMkPz9hj0CFw7NTU4vLI5gn9DX/uLVz3Yi9dGsY9r5QzMkMTG9+HnEO0fOz88T5ML3kVH+JzKw5OPJN0OOCssaH/2GfK3zldbNev9BPuiZWxTINxQiZyb5tzA8y1+aGPMPB3gq8j9N+fxLk6EJkpwZHdd8Rs9LJ83B+yjn+fxT34cXh5emBsrbdmpCoBlJhCanhQXx/5hfEP8e6x+cJebJab/AhsQScpW++/ib3UOVk2dsZli4yQI5TwQGxifLRJsPLBDivUbLTEjMEwsCe/vGBwb5ZxtbGlJw4vOqEgxBg8JP8n0nZ3iQ5Gxocsnf7w+IK5mp/F0mXOUvcjQk/DgT8gtsOI/Sz4Ol3zv0Zp4xQiDfUEBgbHI6SIpXBrciSfHuofH+gbnRBf4/hIebnUIfue91takGcF+1F8YqBOJ5bmYiGJzXhrg2MjgyIPALun/7MEZ0L0o93xxBkNPj/gVSpJX2rWZHp2dnyApdiYnPymf+o/p0E/Fc+Sg8/WYBo+ktCYAYDfLrIgJlnuiXZEHbU+WtunrALfrLfC68J2J02sw9JD4U7qOinveFYzbMx8oDjHweLOMzj7kAobsUNf3KnydDA/yF5uYkzdqjMAAb3wPqDQsU+DZb+ZrVm00vCQ9ZedzBikZ575j1UuE+30gICB7C4noABC3iCcqb+BESYXrzEmzaMRJIPDuQH5Gc7HeY+1rENU3N2qUaRL/RcX+ADADB3g3fqEOyj/hNSwb7/SG71IPutyDamy+dol5dq7gq3/DMtZfDc8MiIW7isviDzOe7QPDx5g4xMRy8PvXmJW3v0zQzfzo+fRBXNXID7FCRgmRQsnEfyZsKbN2KorUq8XAgR0WH+LGD8as/pHUt3cCKxHUNS+oDWH+vpa07PnoTbFfG7JD6LVUbrSD0MW7KgjADYnZQ0r4iX3yReNw3dmMvaWZSekl9jm3eT2+9AHM3xhdkSHKrxAjgA8kaHLJqFOlA9j3eO5VF6oIcAf/CzXHGosgZPXeFu3x5IXH4jWiMMshpORToUZnoVUKHTD2vByeW7FGUAKxRZr970jb7bvMFYb42MyY/uc8pr010eT1DQwN+/6TqKQOhBXtKEmhfQSsC7S65txZpR86GQhOq/x3z+wemxLi3U4afyH2exa/EhOoJeQRGh0cDpA0KShEsT0ddXe81bEtCCJYNBzHPNjsxQZDiXZziPmllPF9gnTWCCI0Nfg9OWCYgOS2y34cvwDbyW9YbJBkYXfq8iPfvCIIUo6geiznSG8OXR+LSBrWkHEFOL/mHhkOERQpK7Nfe2iQ6HL5Fa8xHkPPTYwMDYwtadyYXKv6Nr8dWjcNN4KloUvjmNLUESU5/Gx9ZssiCQPq1SLewxnwEGZgcHB/5HtK8KxmQzEsLCdIbxqePkt6d0w4akPPBKU//0OKCqfifuPwJUfm++Fu8gxW7kiRDYwOe/qVpQvNLMvVeOFg8dFdKP3iWdEJI5Owov1H8cyHzBCRF269P9Gv6zXs1M/PBpRGvZzCoTTzeNJd8tr53zlGvrktOWA/pRA0IckLIFY5/C5oVgrLrIV59wtz3eDtldIo3iQdG53XoTQZBctTzwEHywYbzQEhnhcRM4Hu/UEMRNGsKDiLkGzPFfPxrmhziheXI8MSM3sPAmUvnwn0gXtrv7/cJyRv9pU0Pesp1FKa0iBBTltFvJtTC64tFwRLuX1rQI54gWH1C7UFFKb11kHyS37E4vTg2aeT1krPl+hbP1KQJApJBuEBlxNijJsiF4crlg4YiNsQ/bUjMq3x0kHy9olkxEPhqwrvgVzgnbBszBCQWYOFnKPp4zisTz+tfNPFuCJL8Ol25vq/FQfI9kYqXv5nLdog72Ns/NTqrzyJEAC59+WbE2BPlbevt17H00C8ExKRAu6Ol4/fFcIhH23BWPPfsZJkuvBLR3WMECAcL+K5La3J+VFAYXt/QqMlMHzEhaSYnNUdd3R0pGGeafvwOXiqLtfElXU4h4IS2ntFMkMEyR3vHhydMGockyJZ33nWUfHLthGn68d76aGXnjOit1yT5hLKt8tvwTU2b9Qtll8NRq6+MDsly9n03adryjkGgsmQd65ZASnk0Ny8v9PziqzAQptB3FqRLe545Tb26J9L29fo+m879E6TIgP2fNXjGlOogiOCQzyLrQQ4bSEY5iCaoc2jKfMJD2nM822CJTiBe2wAu3iLs23FjKaC68AC4bJvzLW9Nf1VYb2BwaOi7nt+mXAZRUcG8vgxiOIechCsvRzARA0mH8xcwz3pCldC3oaHByrvpc77h7Y7Iff4gMWupQIggQ5/F0vE5NfMQSMWfb1j1gZmFbxX27Z+zVi9EzM/OL1a4tt157pOq1Lz+aavJCFIsDudZV8mAIFwv7V6FWiJIkfW8frO2Hvxd8eLO1abJeCUlEkeCVulHzARFQTSuUJyKcmfeq0auTQa+i3t7KmT5psSi5E53G6/upwNYzr7xRcvlfeSCuIF9g3C8EBTwAMA1abzCFanej9n2RtSbGJOu3eOwzVxBL6h491hfDQlW458Edne54l4BuSKSnBD3vHdk0noST3pf+ApqJ/AUFGtYsb9E8Bp4RMFKJGRbyBiUqsBDUjvSgHVpIdmbAvWcjLUgeC23h44sWq40BbzmmxJ2KL9EfCtfxT4hpY2Lbndz1AvMAY3UrtE94gQ65GYpz5Jp3w3QD/gB/lFyJjCn1cnHv5oZUrQ5vL5vluubiRDkCD53mmYQxDIez+fvY4ujs8YLUdIPREDGhxe1ukiF6w+NfgepZev11ERgcnHuu/iqakHrSpDKNaYCX2fsFPKQs0si//r0W6ql33rG7NTwE+TM/0iSomYkH48mqVnPuhErLgzQzxT6F+3VNxOz0t6vAX8NQrPEHeNjAVsrs0Q/m9Tj3cQlyZP+22mKIWj4E2yvIaM0hsbaJkzTr3/Y3s4NyHK1vcbGGUD9juVcuI3lKXodNVHpZ7N69ZnZcga9Aq2eV+fQATVG93+btlAPJIFUt+vhyWejUJKcH52SI2BWxk5UC0/hbmWegFZXiGZ29TBl2bKcgInnbas53hPQJYft+T9DVkvtQUG9ISw3kRDlkiDp8v84WVSlgyfiZAPf1NzY5IK1FfIcMqRJLyWs19iHJsfmxGrSl45Vkxrhjdh1y1svXy2HXiZND77Cxu51Qcx8DVWyy962mqVeXd0zcX0+v9V6ZiKAi7Jo4Zs14pHz03OSYH3kNI100AvUr8+/ZKUpgSDmrHgdnknzmbUZMjD5GWglB/tPjSF3ffMQ5lcETBowUmu3WYyYS6zwtFsYXfJDYuFFDaQ3tHEXnRfp4XnQTABmJqg9qQaPAVM9RoHFzyOISK01b0OJ+veKdZox0maCZk0+iH4mgqVESBH96nFuaItJND6D+iz5/Wvcj0HMT1rlPQH+URN1kCF45/Z9rIG8riG6uv+SNIhQ60niO7bACsmFJfMmCwwhuKNLO/7W5MKY+Go8j5/rDBerKTS9k+J//QPfF6dDAWH+B1YNE6BEygZ8Q6PYOv3yGyNmF0LBxW8S83W+qmF7T4VmaJHjIwNTg5+XhidDqnXOTEBhEBvo/zw6q66in54cW/o8OOUfgWZ9OllAbx1dmFGcvm+wEibImXmhd+oaxCsTcGhxgUASBFgD3NHmIRtoUVvBI0FxpJkwIIycmB6esqMxVPCNDC6GZvkrSvuYwNiQz29iwHYV8aZbwVf9g6GvlSXOLkyPjn32W7OT9dHvXxoOTi+Ir+ZrUMHUvre3aWh4Ba/+RNbgHxseHh6b+zY4NDCiPX8YxvJKWMDKasQUCT39/oGhwaU54T7fETuyp6WmXQ0NNL1629NnxZOFKLe2vhGNbcbjiXg8vrWd3Nnds3Udr6+v88P926RzETQ0mx+KLtNudz8VT1M0zbBlMDSTyR7kDsM2yOd5fhssZQ086fjHMvet7MSyHM1yXB4CRzFMejN5tGyZfp3Nt0/siWj9YNksCe8fZxgKIR0gIctmU+tWCejzPrxlNouIL9Y37nJhk2KwtKuAotOxE6sX9fY9d77/wDLqP3iVGzeyd3p0eHae5LFRWD86XVX8/uiC0yOeSMDomppCEQHaBHx4W7xdgAc96AqW1w7PY5vFdJ799395lLhMOnt8Dm/FvY1syYB4FQJeFuSvRdbWC/vJ7Qsese3kfuEkrHwnZbS11MqMelN4gk4Tj5yepRIZXoNSQCNwHEf9m4UYaS2VZ42JJ4BJ/1iRvrWfvWIZhi4JoBmGKiYucjunagHpeXmLNnDjR1hnrK5H43lel6roQG/JrHJybLRvIQZkL07Fr6X+D1HRHMWbOZl4qqDe4I9ujQXT8AF67OXDWJHB0I5fa74APrWeoM0ST/gms3kkch+D+S1LZy5zR0pZ+LjG4/QSGl5AD32UumIoPBHoGHAl1rMYMuiBju+Wvxi+xJJdMHKiuwr69dwKBdIIUW91I0trEC/PJo6kj53GrfBehX4HFSekkNHY8xSTPV9R0O8W8F/TI/l512KUpjrg0mfSx/YuSlapxyuQ7bLgXN6mtWQmSx8ojMTHNVVSisOXj/LTrl9qLo0XfD+AfjzHuxn6oNIVybl2oL3v6ewGasc8qnX9C51ZtKOnDpgUEHxrcZMWi+IKx5Xte5LQ/jqb+YFu4I/Ong5jhHeyo1Yo6qgD+kA2LfbzNpiP59+MqLh3str0o7gYEqjBHwVSK5BLnPlF6VFv8xR8cDllUeuCi6RE2+QsraWeBBtnC6FfTZcZgCnivCGnSz3IqNjbskk+5ljcmJGknvCE7KOy+Ktd900usFrb1JF79OURtB7b3McmJBaO5LB2ufS5KOLE1ez2fQO8jVU9kjBx1J5I2iQfBcjH00+H/7j8Bnw752aVGgBMR/eeZbSlEXupsMbWr2ypDnnzCiz8I69zxyxyxxosqxcApqPzXoQ2QzFK6nlXLyz7HJUrbUNu7aoe/Zgt2HypjSZyFe5JzBeJatOD3oTlXgWHV9or1waX3kFeQk6b4xXbtybZTz4/4aioaYjRx0pHXiB3znywSgZzgSYvV5Pa/MfET6FPPqzF7BE4PyGyrenC0genXgz2UtrenRbY7LriKsvnGc3XxuSgD/Y5dUaCHqRzn7y7RQ0u4JiYRq52JaUV1dICldlXX+bsSot+spEjwNmhfViACeze5L8a1Mtvr6iXLPJf1GyoXiRHegN3GW1Xhz6HPlaDtgvYuyuX+CVQmRw2jVPB8n7CPANydKKAv8yhlrPDbEKS0rETTrQhjeH0HuIDmGzxXD/Fvasdl1YQj0mnMAqogpNNvAPC5Q+hTzl3LqUWQJzvB/b901kNfoEY8DB2hcsooaCY9FZBh41PL/CXKG1DH6qF4VUImqRYy94xjnzMpVJP4rC6Hk1gc3ISC7E0m03taErQMsIpDsfEbBz6Wg0M7kPRKom+o6z64TnmAmuwqBFZO0vFM3RJUSIk5IXZEp1PXGzsGla5rCbTGDXEpaEXWHPCTzpXw1tQBz+pfFSfYVAKhg/PY/FihimVaB4M/6dUYtLFeCx3uGauQggbqWVg3Vtrjgcopc+p3jx7tWG5sGxvbX3/PLcdu9jaukhFk+dnJ2tWCiRPMFkWJgW5yE6OWsdB0hyRmMLf5ZjLQ+wSTUG79Gc1fLRztr+xcXZ2eLqi+sxpTOXBIabLw9oKmv72u/hcK4rEF8XFNMVeZG9vZWVlb89c7TKMvZPzWKKYZwSw6ezm9v6Rgjn3ckoPhIIdj57acnsbpTaiUzTvxRST+E23t7tzHt06Pt48Pt6Knh9iqnq0sbaxdcXrYClCylEszWW3NnaR1xApKCxoRHfUwtRSCODUnV1Y8fIbFwkqSVg9SW5l0ywjgU0nYmeYsj0swhuXeZV9zVEMlYieIAQ8umDhj3EZ6Fk8tdVaWQ/sFihewGa2cTQJ728VKbQCl2OZfDxnyrg5POY0/AqWKW4j3shK8gpiQC5zBv3untMUQwCOml0H5ONKiTPMlgyfxymcc8avPqEsSlFjL5fWiQ1SdPYckRWHsAbmYMvF8WH1CMAJxCByzORjGMd0tRDX9irURSkq2scM3GKW2UKi2WvbacCA7A/oFzUyt1QEsJoPK3kfltosYFjvKMbpptXo7L6eDlm7MA6r0lmE5yOFTUkC0lHo/2tpfF9d3SvpsQTycSybyGGk3upZwmj5bCapHQ5YM5VTYjM5ZAOv5bIVlkXIV1tuBzhx7KT4L81rAVxAKRzVDqYDUJmcFv/tmcynU1QMfXcnqXJ9aw2T7z7gsI3YNqay2CtEkigz4Twqn8Sb0ZFzZRhBCxyzhT7B8vp2Il/Kw+H9505TDMYXqJpZw4fY3TSZDpIK95RY187fqcBcKJIqkdNC8gza077OWorXvzLsvjoyX3/LZtWpYH7rHlhJpjMxgwiDz/mDYgDA5FdN7OJLuPEoXWDUx4alUgSO+mHgBtZOpVrX7/pPKlTQWuo7yJ+prhDWqfvAXgOXyETwsDb8tk8dmLEPKPZShikMBMymKh+8YbWOQ1EXpIavrbkGMh53nvXpP6agMy2W33J5Jevs6RSAa4A+MHIBfW8d1x+Nbw2ekcehBZ1ZAaNc+rqNKiKkMAOP9w7HrRoNxR4vtrC5N11QV4oItToFYOIiRfX2VeoTZzs9muDuNW9kRR01F5Zuo36K/oFcyV79MxNDNXjkMHawrTCKnKTfnb/hJ9lNZbOY9L9OuZrOyjeR3buLyX4ag0IrACMb6RJdKqIhLe9fjhVL/gbPihS6mSnq37jS5F2O2ei44ncvsvF20rbqdxnEgFwvZz8oRUjL+8iptEcL5GvsxiolUiWlua9R8mJIP0T3ntvqO0JF6LLUOcckCohkeO5MpxHUQeQ9vBQFHJVGhf6y7cJl6CKRqN3Wj5SsK05A8wx7dQ5zpTMD7BugMaVQWr+0jbxaOxaHAPoCUpKrF3ZbP7KyLE7KQoTKI7VyjvhvcgdRZAPKqTJx2GOwzzew42EtXACBo0AVZWQLugbFIS7xh+onzd/JzsY+HAblMnAt1am9bkl+gVko77Z3bJN8PBNLbLaGNA5yVA7aJL6qb987cs94Ad2fDCz0z+wpDsHmhUygFeuGt3QZsHuPUOWNpi2rfsY2KCb1riv6QeE6xEjKLtvcEPnylBR7LShi1WhlfpWLxRvBwXZryqWVYvJT2ex0zivIZ1v2Qfmhc6X5yRxA0rWtumMiQBfCclQZi6IPZK12aLNd7QbJJz1NUkk+jss5VbHWCEYs7agMEzYhv1Wb5m5eQT7bPauC8BOzRj9Uzg8FRwTbqmm8gMQaRipRxbUbWDabgJNlOdvX4a5EFy2q9h1ho7qaxfZPgNrdUIeRIfJdY9PB3aY2Ys0AXF4MG2yrH4W6grRHFfssQUULrgUGIt/ape3NS8dg58W+DM3TFcMZawOUoHrdKtp+wOHAjZCCyHei1d1mDAYuCVAWXVrBv+fa5KOKUPClaq5Hk2S1rOK8AYh86/biTAI4JNlm2+nlOSypuXnlXwpor1bgFPhrWPJA5Du0TT5OEWhP2uY+iUIY1aEoF6/W7u2WbvgD90ZvhHyKaLPtwI1MPrXhklc46FU69fOJ1Hq6sonbUlT2BshHR9GsiX23TZR9arO5DHj39lRnwNVdyWY+wbIE1Dxmm3xIGXdl9XbJJ2pejS5jeks2/fqq47jdk0TfPnZDQU6bbdXBXipr3I5sKnEuI0a/N7D0Z+HoZHUqTkGwBavM4JABrj3QFBi4DLmMSMpOxknwOkTnbwdb6YCkpJ5XhXxSfk3DmiilwPOENRrLjYBLcJ/ozPnSAWCvE+xOAE6JgBfVsPzeSMldjWgULXOOXacNcUavx370haiDdvG6m4JmIlSlU6tJOolNI3fNytFmm5kOVYlGhX1sST/QhhrGTzmAvZuqVJw2SPVoGtKcgta+b7YcGQEdw5U2Rn7YKPbgQFRgGb8TaCg2XpWg1V2p/wpvynIZSG7Z0pdUGl+Zt2ZDkkKBG3y1Ay1Laq+vGmcrgPY1fBgECdTZKu2hVWpXRMG69oCK1PB2M0w+bzVa9A3Ix2zCGWgb4WZMaakIdWLACBRUZV7Ab94aIx8aqLNu+eH1RgVhqzWmzDauSAN5XLgYpKrkw6tC2Iu0Ea5HEzhKnFjL3CHZjDA2Zoi0GlWDfHdxrbvy8vNoU4vVUAkd061IPrQy3J5j4SLLVazqhe2+qvRIN0gRg1PcxkQCuF5hGp0ly5k5NuiJLmgOScNcDPWcf2CCBojX0VaNgCkozwjj4lXMpULwn+oMpVZ/W1VdeQ36KYpLvWe4zQIPOKiK2QymRGJL99QmrwXTmUmYGNVUMLl/Oeoc/eIRRo4gZtbjqtSZPpduhxv2xSqeWTjTwKy5wcTNDLryHsbNuB8cE1W0duGiuwxUEuH9UJUy0w4pYIWZt8Sl1WZHeMuU+ONwU2GxODLR2kpxKWVTIE4MIyZ6dTLlIMuLMerYOKaXd1dvhLi8XrNjwng+yhUNulvZ9A91S+WZWoxwkHisUqa3QcpTYmbN4b39I+NznJirHMZiiSwvL+PMwMj6FqUjATkmu49pylS/bgqqx/H1VafM5RPo5sgpuYrjsCNFvacGEzAoZnMHJdPy2vrZj+1UTDh/LXq+o5yx5F3Zv2Q057xSW9igg9oDL8Eu219V6lAA1WnrytpRCtvJLDx5Mq293ajSVQ4xd/bWcweJdF4YP8eDptlM8TKlHDMU3rhkMQchcQwdP9PohVZ64OhEzufVoV5dl9SRsKr0QZktzSbu9QP8CYqq4T+R3eRlhkbPSOUohmazMcXcyJXCRZFiWHB2Hid8LH28r3kSrdLNdGYe7G9gxrCyxkVpasHYOzvOKA9sKw9fisJHqi2vp4o0XlJSpfymgjSR3f3UZTHDlcdhUfnyMb46Xfh7aHaGY2FR87hq5xiBXJuix1tz71awsiMctciU+UU4z49hVKO/jraLmieTCRuT21RuzMjK0c5+LpVKbSfPdk4NJhig5/qgTl31CvyA28tLE+R5sHoXwvJpIXexmSim0+ls/DiWVBwnuXJuNLyZY/IXWLWgd0CqDKRPAtVz1axufibdFElFIv63JlZXTk/W19eP1lZUB8xuccb+LG+UbOjMHTYA7ChJR21VUM3WGKA8kMYN+tjmAewVFBLmckFUftvOMeVl7MoBDOoKftmeqo5UA37vqlx2yLGGk611ENk3HUpRTQmyANlURYKBVT4BCkyL9O4C7QGfF2sZy+e4YctagA8qs4awNI6HuYCtIE+VxyGCQcPeHbFbnMVUVphGZMNaFq1kiX6rK7KcPawwOXOJXODvN9UlXyNoRxV3HZXXsfkMYSWIXOE/5ZQqTdId7ae2jo+3tiULaf+K4TgaPa2raoW5AKBMTeAcmmJ0j5MwwonV83l5P0QZzsMifMY7JoLvR9P5eGW2Z6Swmc5sITMXfNUfhvgJ6uctXGaPz65BvbCNhlPogFpNrOxvZoAhKZiMFQYMr6+j3t8HB8YJNb6HntPSSHQlItgaaSOwcc1DO0QcHuQRU4ijt7HvuNORYSS97bhnEU49ONw4P984XDPLjzbrvuEcOAYrP66UdiQ4VBVB3ysnqFdX14Gb2rdXuCjmS6USnSke59bNMKXdY+706hF4cXqMcZ7RVq8KfN3OUK+urltNv5MtrlSZaM1RdCl9sGFs4Noc0gJ32quwfJbFn/muFphvHZuj9uSx8lmO0JMeOIaKnxtYGKsxu0XzSJIWwV5OwwiHK+krqL7NIkM5Pm1FtQ95AqpiTChO7NaPKwpUIIRTWgcGUlfKkJqTxxbdVzwLLiXOMZmYXhjQfr8V0nkNYW1LO/ZAK417Jw8+6UVHH+LbjHgCJrSHgV+j5xca9ADjVO+K9JYiMOjkacdNPcijaM6rYvMpLQlou/dDAHJ6mIhdXRscahkro0qtRBpAhV/0f7Wemvv3WGMDn9nuWc0Ljr9KrOpTT+4yEvHPHSfJhwg/3WE/dAIfisafimcSVFbpeZwaFaAqhJ+zp312QVPUvGu6+5ApnmHyEXZtZgkKy3nNsBZdoa0d8jhEyAdq8zjUf3C2iDlwDH+ooGkodEfYuOucOYAfot3h2bnN0LMUDNqmqKsNFf+F7U+LKBMD2Yp7ylPOcN+AU+PVaoHWBGy67Bt1nVHqU3WvMeRBAFJgFvlhopIQaUF1eO/CI1283g3Dpj1WFaTbvSb5YEm2b2a6NnJcm/PnJkC7VzVlC0O/K4X+vSb3wY2/J6aqqJHadefPWmyVo37G3MevV3Eiu92WXxFQLfCKySJWqAG6usldLKCTTgxlX5l+x4jZb38wZBmQ5jU5GB8mX5WGP+hCHoR4ZqphmUUi5nYn60oAdt+RSSkAdar7njtNOx71IGO+Y6qEXpHjuZ7XAcbULW+bvA7kqPTVxIkdwO/FNU5ggGaoMfXa5iH7vIdm8yVQ8fr7mjgm9RWo9jO5fxi4usTuhJEyQMTFvO8HRRkcS3IgAN35+KY7NZBBGcoDfa2AA5rD/Gh35lgSvbWxd+vu/CmRIoqd1KMGDU/KuIloM5hHb+LeYKp5Z42c0QuE35lJSiDDZ64x5A/4HBaGvNCg3/iho6E+GWCimmk5Bg+2v0amTRqTEdm2MOMFuD1OhwskPJV0h1nhh87F3bE3H0hoYRLFmIWmV6oI1H6tHFNZD2KmqjYjzZVDxzCtmggzYSkBqgw2zItPGoT7+qoxdsQMPoFioXWzjMReQtUSNmtcaKnGRdWdowMwaqGGTqkEws/0lEJkQF8EO9nRCGxCEgAWlA8nj9ipFdFXV9cLal3OTbc+w+Mh7dX3gVlZ5+aZFxou6GSCF8WTv6RnOjIrxFlk5oH16tI8C6pLLYzVhdqwnKxtUQLsXtNzW7grJO53ZrW2GTqB10LElZEd3g9O0wxCK9C9pl13tHswsmGlL0HowJHDDjvmj1Rh5Rk9Tmc5YHwCZy2atkIUIw6XLdGPPoCCNuYPYIR6AKsy6tA0ngLlYZb9WMXAl8h+2qwI40pwV9GyabMRPrO3VmzmCuSji8yuRl1fUUiYO71cUW9kPlMMnbhdO0ZfBfLp5Lv4KZdKcGlVzYu9jkrTHhtcil8boT4Zd0CHuckphRymzHjvPGvYz5tR9vOaNZrhDsqeGmM+pMvI3ImyFG7oxtH2lW43OabSt2BO8cInsznQRWSETx9lJjJl/FFJLwbL66ms1iwDOrO5oa6y3KdMkY9OyVv+RU2p3Qrq5UrTsJnMA6tx9vXyUXIzU6IRonAUW1JP0rBCvhJ0rFhbrcRaEIDZVrw4N+HE4rmvwr7rya1snqFLJZpHiWbYYny7cIofV2CKfEgD8DOnKYUFtH29u/gicYR8+IFDEg+G189ysdjFhTBGaGNnV7u3wQz5mEvISqrFrSugETpydvfAQH/gNK8aEeMJGSZUBwPPZut04jhZU4CbBNeMxlbpdqRZgKHhwjFwWbqnw2kqaeMBVOq8EtX1YrGj6uzA6BxMiopBcs9TW96aAvBx5ctnel6Y4cgcs1jWz9Qx6RwsN/+o8tACa3jT7YOe9eiC01oavrXWFvSGo3J0HJls99HBDjYzePMMXtkqz4AarY0HuvOZrWAtrvmO6EwKGZjxtkaVrow3z5Am37VclsXkP5iiqSmv5rCBZz+O4Y7RoYofa6SuQBctaJ/gafJSMXiOo+jsjW1dHqtRVs3iFJPZ3Ec43PNHje9cEQ860eWFd7bjaZamGYoHy3u02ZThxJzV8Nrp0frhzs5OobBzeLK7Ft7TtgD3klkGNjM5lvdTLgqoeOhrrmmtAaH3vWJ9kbXD89TBZfbqKhs/SO0f6Snd5fDJTjIa24wnssKgukw+n7kqJuLxi+1c4SSs8c2j3Cb/ghiGZRmGZjKJi/MTRaN+T7WGQ94AGl6qpxws74V3T06O1vZ0aMeTORnbLKapMiUoYUwiVx6qyfJ0KY8wvUgehrFsGF4/j15sxuObsej54a5qyMGHGspLGuNNRw9ujbpYPtqIJdKsMFxSS5NS/G/T8VRBw+JeXVlZ2cONh2hrvg1KA8bdj7gxJdoI728VWdqE+y/MO01ETQ4Yr+BRzbq5Onj3wme8MhG7uQRuirAmBUtXKdMEfNxR1dl8N4Ynr170Ga+Ox+mPrIZ1rU3BUjFpxvD2/dVSA70vNvHk3stOwxUun8WtEk8ARcUMgw7tb1/VvJ+hj66/DZZoEJnRYUD6wmDG03tH5zzcDJ40t+ktcTVqfHqEFv2g8xwx8Ly8vdsWxrt/dBZ5lrHfFlOK6cSiOzs+Ob3wG0LDR00dfK0pOKqZNhAe3So7WR+f7mtpkGu1Q+Om4FTQ1n3b7GR9dP2OZ8DrtEMrR9rIeF8b/VY3iC/3sW5cJGp/82pp3vbuW26tYFH/EmdEm21jVoPNYkOung+/gLmCw5t7ykCWgA1zTfQqcHn1VBiv4KLdjqCoHTRhdvCq5WNjK9TDDm5u76650rMbRUO3at7uSsxcVSlKPUZ1DpvX2/fxF7JWNFD/h5KAKzHLp45zrJp6bW9vY1zKOuqfKazAvWjemv6g8lEl9do//qIaA4O7LQ+RYOpq8sqK+ccUz1G553vc/etvWxhND97Ceziyc2l6A3PMJVpV3vah49dWGDi86WqBxz6fpjLmGJDJbCOVAz3drbczmnxt1EMFgd7VwmXJWAJSpcsCsnF7/jsiT4UGePikN5zMGhCQKhXR4xi9Pf8NbauBxt8RYuxGs8qDBCGZxzLZqKIV6a//lsZQoeklGonZzSkrYgDtMvGcso/rxV2nn99pfOlWxPLDBeEoRhqc3CnUGAh1FzHlEalez8tfMbJiFQ+UfvDyaeHHVvwqzQltCTSVvkpsRQunqtqO9pb/qMZVoOuDkjK8Hj49OdxP5pLJ5MbOySmuuurhLxcStYsnLRrn9mij749fI412M9CK5Wvh14vGXw9vHvxpTDQJPS2/bkjULpru/2WOA3ua/3serhk0dTzSLUgQ0PewxSWeFr70PvtTpyjL8/jlPdfU00Xj6+5HnZjKSl/7+2f3XMYzgS93391/+eF9Z1tfGW3tf3742PK03lUXVvCkob6+i0d9fcOvVXDhwoULFy5cuHDhwoULFy5cuHDhwoULFy5cuHDhwoULFy5cuHDhwoULFy5cuPi5+H+ryIbvaEzFzwAAAABJRU5ErkJggg==;" parent="37" vertex="1"><mxGeometry width="150.17" height="170" as="geometry"/></mxCell><mxCell id="38" value="mqtt" style="text;html=1;strokeColor=none;fillColor=none;align=center;verticalAlign=middle;whiteSpace=wrap;rounded=0;" parent="1" vertex="1"><mxGeometry x="495" y="330" width="60" height="30" as="geometry"/></mxCell></root></mxGraphModel></diagram></mxfile>